<svg xmlns:xlink="http://www.w3.org/1999/xlink" xmlns="http://www.w3.org/2000/svg" width="27" height="27" viewBox="0 0 27 27" fill="none">
<path fill-rule="evenodd" clip-rule="evenodd" d="M26 13.4546C25.999 20.1123 20.9742 24.9861 13.9998 24.9861C12.8377 24.9861 11.7306 24.8826 10.6921 24.629C9.51516 24.1779 7.69697 24.629 7.69697 24.629L5.27273 24.9861C4.30303 25.1476 3.33333 24.1779 3.81818 23.2082L4.08313 22.2385C4.38065 21.3266 4.00812 20.3374 3.5086 19.5225C2.45153 17.7972 2.0005 15.7362 2 13.4546V13.4535V13.4525C2.001 6.79532 7.02581 2 13.9998 2C20.9742 2 25.999 6.79532 26 13.4525V13.4535V13.4546Z" fill="#00BE1E"/>
</svg>