<svg xmlns:xlink="http://www.w3.org/1999/xlink" xmlns="http://www.w3.org/2000/svg" width="40" height="40" viewBox="0 0 40 40" fill="none">
<path fill-rule="evenodd" clip-rule="evenodd" d="M17.5 19.9249C17.5 21.3138 18.6193 22.4398 20 22.4398C21.3807 22.4398 22.5 21.3138 22.5 19.9249C22.5 18.5359 21.3807 17.4099 20 17.4099C18.6193 17.4099 17.5 18.5359 17.5 19.9249Z" fill="#FF8383"/>
<path fill-rule="evenodd" clip-rule="evenodd" d="M25 19.9248C25 18.4863 24.5213 17.1638 23.7147 16.1049C23.2949 15.5536 23.3987 14.7643 23.9467 14.3419C24.4947 13.9195 25.2793 14.024 25.6992 14.5753C26.8284 16.0578 27.5 17.9142 27.5 19.9248C27.5 22.0203 26.7705 23.9478 25.5542 25.4595C25.1199 25.9993 24.3328 26.0827 23.7962 25.6457C23.2596 25.2088 23.1767 24.417 23.611 23.8772C24.4802 22.7969 25 21.4236 25 19.9248Z" fill="#BF5A5A"/>
<path fill-rule="evenodd" clip-rule="evenodd" d="M15 19.9248C15 18.4844 15.48 17.1604 16.2884 16.1007C16.7088 15.5498 16.6056 14.7604 16.0579 14.3375C15.5103 13.9147 14.7256 14.0185 14.3053 14.5694C13.1734 16.0529 12.5 17.9115 12.5 19.9248C12.5 22.0187 13.2283 23.9449 14.443 25.456C14.877 25.996 15.6641 26.0798 16.2009 25.6431C16.7377 25.2065 16.821 24.4147 16.387 23.8747C15.519 22.7948 15 21.4225 15 19.9248Z" fill="#BF5A5A"/>
<path fill-rule="evenodd" clip-rule="evenodd" d="M30 19.9248C30 17.1181 28.9859 14.5528 27.3047 12.5747C26.8561 12.0468 26.9178 11.253 27.4425 10.8017C27.9672 10.3504 28.7563 10.4125 29.2049 10.9403C31.2586 13.3567 32.5 16.4965 32.5 19.9248C32.5 23.432 31.2009 26.637 29.0622 29.0746C28.6053 29.5953 27.8154 29.6449 27.2978 29.1853C26.7802 28.7257 26.731 27.9311 27.1878 27.4104C28.9389 25.4146 30 22.7959 30 19.9248Z" fill="#FFB7B7"/>
<path fill-rule="evenodd" clip-rule="evenodd" d="M10 19.9248C10 17.1183 11.0139 14.5531 12.6949 12.5751C13.1435 12.0472 13.0818 11.2534 12.5571 10.8021C12.0323 10.3508 11.2433 10.4129 10.7947 10.9408C8.74124 13.3571 7.5 16.4968 7.5 19.9248C7.5 23.4273 8.79562 26.6283 10.9292 29.0648C11.3855 29.5859 12.1754 29.6362 12.6934 29.1771C13.2114 28.718 13.2614 27.9234 12.8051 27.4023C11.0583 25.4075 10 22.792 10 19.9248Z" fill="#FFB7B7"/>
</svg>