<?xml version="1.0" encoding="UTF-8"?>
<!DOCTYPE svg PUBLIC "-//W3C//DTD SVG 1.1//EN" "http://www.w3.org/Graphics/SVG/1.1/DTD/svg11.dtd">
<svg xmlns="http://www.w3.org/2000/svg" version="1.1" width="372px" height="372px" style="shape-rendering:geometricPrecision; text-rendering:geometricPrecision; image-rendering:optimizeQuality; fill-rule:evenodd; clip-rule:evenodd" xmlns:xlink="http://www.w3.org/1999/xlink">
<g><path style="opacity:0.985" fill="#575757" d="M 229.5,187.5 C 235.833,187.5 242.167,187.5 248.5,187.5C 252.41,187.263 256.077,188.096 259.5,190C 265.94,192.306 271.607,195.806 276.5,200.5C 303.5,228.167 330.833,255.5 358.5,282.5C 360.694,284.221 361.861,286.555 362,289.5C 362.828,293.871 362.661,298.205 361.5,302.5C 359.323,306.863 356.656,310.863 353.5,314.5C 339.035,328.465 324.701,342.631 310.5,357C 301.163,363.688 291.497,364.188 281.5,358.5C 255.688,332.971 229.855,307.305 204,281.5C 184.921,261.31 181.255,238.643 193,213.5C 193.667,212.167 193.667,210.833 193,209.5C 170.583,186.082 147.75,162.915 124.5,140C 106.824,139.833 89.1572,139.333 71.5,138.5C 70.3349,137.416 69.0016,136.583 67.5,136C 49.6043,111.715 31.1043,87.8812 12,64.5C 8.87559,60.0854 6.70892,55.2521 5.5,50C 5.48078,46.9756 6.14745,44.1423 7.5,41.5C 18.6342,29.533 30.3009,18.033 42.5,7C 48.2822,4.92953 53.9489,5.26287 59.5,8C 85.6051,27.8045 111.438,47.9711 137,68.5C 137.667,69.8333 138.333,71.1667 139,72.5C 139.333,89.5 139.667,106.5 140,123.5C 163.195,146.361 186.028,169.528 208.5,193C 213.694,192.253 218.694,190.587 223.5,188C 225.473,187.505 227.473,187.338 229.5,187.5 Z M 50.5,32.5 C 72.1242,48.9516 93.6242,65.6182 115,82.5C 115.5,93.1615 115.667,103.828 115.5,114.5C 104.147,114.832 92.8138,114.499 81.5,113.5C 65.2574,92.6798 49.2574,71.6798 33.5,50.5C 38.8503,44.1511 44.517,38.1511 50.5,32.5 Z M 336.5,295.5 C 323.236,309.431 309.569,323.098 295.5,336.5C 269.928,311.429 244.428,286.095 219,260.5C 216.212,256.571 213.712,252.571 211.5,248.5C 210.082,219.085 223.749,207.585 252.5,214C 254.5,215.333 256.5,216.667 258.5,218C 284.368,244.035 310.368,269.868 336.5,295.5 Z"/></g>
<g><path style="opacity:0.986" fill="#565656" d="M 274.5,7.5 C 280.573,9.02369 286.573,10.857 292.5,13C 296.323,14.5348 299.656,16.7015 302.5,19.5C 303.468,22.4453 303.634,25.4453 303,28.5C 301.053,32.2762 298.553,35.6096 295.5,38.5C 279.782,53.0505 264.948,68.3838 251,84.5C 250.177,93.0104 250.343,101.344 251.5,109.5C 252.877,113.205 255.544,115.539 259.5,116.5C 267.323,117.656 275.323,117.823 283.5,117C 285.119,116.764 286.119,115.931 286.5,114.5C 301.714,99.4532 316.714,84.2865 331.5,69C 339.264,61.1837 346.264,61.6837 352.5,70.5C 356.736,80.8669 359.736,91.5336 361.5,102.5C 361.912,115.905 361.245,129.239 359.5,142.5C 359.5,142.833 359.5,143.167 359.5,143.5C 357.87,146.53 356.87,149.863 356.5,153.5C 348.776,174.722 335.776,192.222 317.5,206C 316.167,206.667 314.833,206.667 313.5,206C 308.699,202.201 304.199,198.034 300,193.5C 299.333,192.5 299.333,191.5 300,190.5C 322.324,174.849 335.157,153.516 338.5,126.5C 339.636,116.991 339.636,107.324 338.5,97.5C 336.901,97.2322 335.568,97.5655 334.5,98.5C 322.833,109.5 311.5,120.833 300.5,132.5C 296.248,134.794 291.915,136.794 287.5,138.5C 277.206,139.427 266.872,139.76 256.5,139.5C 250.993,138.048 245.827,135.714 241,132.5C 234.499,126.499 230.333,119.166 228.5,110.5C 228.263,99.8018 228.596,89.1351 229.5,78.5C 230.275,74.0073 232.108,70.0073 235,66.5C 246.876,54.9588 258.376,43.1255 269.5,31C 269.164,29.9701 268.497,29.4701 267.5,29.5C 241.971,24.2126 218.638,29.3793 197.5,45C 192.032,49.4666 186.865,54.3 182,59.5C 180.906,61.0779 180.072,62.7446 179.5,64.5C 178.393,65.9923 176.893,66.9923 175,67.5C 169.142,64.324 163.809,60.324 159,55.5C 158.685,54.0922 159.018,52.7589 160,51.5C 175.394,29.8964 195.894,15.8964 221.5,9.5C 239.037,6.33789 256.704,5.67122 274.5,7.5 Z"/></g>
<g><path style="opacity:0.034" fill="#f0f0f0" d="M 287.5,49.5 C 290.167,45.8333 292.833,42.1667 295.5,38.5C 302.799,34.5697 305.799,28.5697 304.5,20.5C 303.817,20.1373 303.15,19.8039 302.5,19.5C 299.656,16.7015 296.323,14.5348 292.5,13C 286.573,10.857 280.573,9.02369 274.5,7.5C 258.238,3.80962 241.905,3.64295 225.5,7C 224.142,7.93436 222.808,8.7677 221.5,9.5C 195.894,15.8964 175.394,29.8964 160,51.5C 159.018,52.7589 158.685,54.0922 159,55.5C 163.809,60.324 169.142,64.324 175,67.5C 176.893,66.9923 178.393,65.9923 179.5,64.5C 180.391,63.8902 181.391,63.5569 182.5,63.5C 180.823,69.4425 177.157,71.2759 171.5,69C 165.285,65.2825 160.285,60.4491 156.5,54.5C 164.902,40.5966 175.902,29.0966 189.5,20C 214.828,3.93607 242.495,-1.39727 272.5,4C 283.601,6.14557 293.935,10.1456 303.5,16C 308.656,21.6242 308.822,27.4575 304,33.5C 298.631,39.0363 293.131,44.3697 287.5,49.5 Z"/></g>
<g><path style="opacity:0.893" fill="#767676" d="M 274.5,7.5 C 256.704,5.67122 239.037,6.33789 221.5,9.5C 222.808,8.7677 224.142,7.93436 225.5,7C 241.905,3.64295 258.238,3.80962 274.5,7.5 Z"/></g>
<g><path style="opacity:0.278" fill="#b8b8b8" d="M 302.5,19.5 C 303.15,19.8039 303.817,20.1373 304.5,20.5C 305.799,28.5697 302.799,34.5697 295.5,38.5C 298.553,35.6096 301.053,32.2762 303,28.5C 303.634,25.4453 303.468,22.4453 302.5,19.5 Z"/></g>
<g><path style="opacity:0.018" fill="#efefef" d="M 260.5,30.5 C 262.607,29.5318 264.941,29.1984 267.5,29.5C 268.497,29.4701 269.164,29.9701 269.5,31C 258.376,43.1255 246.876,54.9588 235,66.5C 232.108,70.0073 230.275,74.0073 229.5,78.5C 228.778,78.9175 228.278,79.5842 228,80.5C 227.175,90.6753 227.342,100.675 228.5,110.5C 230.333,119.166 234.499,126.499 241,132.5C 245.827,135.714 250.993,138.048 256.5,139.5C 256.167,140.167 255.833,140.833 255.5,141.5C 238.927,137.092 229.093,126.425 226,109.5C 225.333,100.833 225.333,92.1667 226,83.5C 227.343,75.6209 230.51,68.6209 235.5,62.5C 246.013,52.487 256.346,42.3204 266.5,32C 264.482,31.4954 262.482,30.9954 260.5,30.5 Z"/></g>
<g><path style="opacity:0.008" fill="#d7d7d7" d="M 267.5,29.5 C 264.941,29.1984 262.607,29.5318 260.5,30.5C 228.658,27.8863 202.658,38.8863 182.5,63.5C 181.391,63.5569 180.391,63.8902 179.5,64.5C 180.072,62.7446 180.906,61.0779 182,59.5C 186.865,54.3 192.032,49.4666 197.5,45C 218.638,29.3793 241.971,24.2126 267.5,29.5 Z"/></g>
<g><path style="opacity:0.027" fill="#d7d7d7" d="M 295.5,38.5 C 292.833,42.1667 290.167,45.8333 287.5,49.5C 277.833,59.8333 267.833,69.8333 257.5,79.5C 255.983,79.5106 254.816,80.1772 254,81.5C 253.71,83.0441 253.044,84.3774 252,85.5C 251.5,93.4931 251.334,101.493 251.5,109.5C 250.343,101.344 250.177,93.0104 251,84.5C 264.948,68.3838 279.782,53.0505 295.5,38.5 Z"/></g>
<g><path style="opacity:0.016" fill="#e5e5e5" d="M 49.5,29.5 C 72.3887,45.8746 94.8887,62.8746 117,80.5C 117.833,92.5139 117.666,104.514 116.5,116.5C 104.88,117.645 93.2129,117.812 81.5,117C 63.8924,95.2352 46.8924,73.0685 30.5,50.5C 36.4555,43.2085 42.7889,36.2085 49.5,29.5 Z M 50.5,32.5 C 44.517,38.1511 38.8503,44.1511 33.5,50.5C 49.2574,71.6798 65.2574,92.6798 81.5,113.5C 92.8138,114.499 104.147,114.832 115.5,114.5C 115.667,103.828 115.5,93.1615 115,82.5C 93.6242,65.6182 72.1242,48.9516 50.5,32.5 Z"/></g>
<g><path style="opacity:0.429" fill="#9b9b9b" d="M 229.5,78.5 C 228.596,89.1351 228.263,99.8018 228.5,110.5C 227.342,100.675 227.175,90.6753 228,80.5C 228.278,79.5842 228.778,78.9175 229.5,78.5 Z"/></g>
<g><path style="opacity:0.287" fill="#a2a2a2" d="M 286.5,114.5 C 286.119,115.931 285.119,116.764 283.5,117C 275.323,117.823 267.323,117.656 259.5,116.5C 268.666,117.046 277.666,116.379 286.5,114.5 Z"/></g>
<g><path style="opacity:0.208" fill="#b1b1b1" d="M 334.5,98.5 C 324.423,110.08 313.757,121.247 302.5,132C 301.906,132.464 301.239,132.631 300.5,132.5C 311.5,120.833 322.833,109.5 334.5,98.5 Z"/></g>
<g><path style="opacity:0.016" fill="#ececec" d="M 285.5,141.5 C 286.167,140.5 286.833,139.5 287.5,138.5C 291.915,136.794 296.248,134.794 300.5,132.5C 301.239,132.631 301.906,132.464 302.5,132C 313.757,121.247 324.423,110.08 334.5,98.5C 335.5,98.5 336.5,98.5 337.5,98.5C 338.232,107.815 338.566,117.148 338.5,126.5C 335.157,153.516 322.324,174.849 300,190.5C 299.333,191.5 299.333,192.5 300,193.5C 304.199,198.034 308.699,202.201 313.5,206C 314.833,206.667 316.167,206.667 317.5,206C 335.776,192.222 348.776,174.722 356.5,153.5C 358.712,150.679 359.712,147.345 359.5,143.5C 359.5,143.167 359.5,142.833 359.5,142.5C 361.011,140.524 361.844,138.191 362,135.5C 362.826,124.326 362.659,113.326 361.5,102.5C 359.736,91.5336 356.736,80.8669 352.5,70.5C 346.264,61.6837 339.264,61.1837 331.5,69C 316.714,84.2865 301.714,99.4532 286.5,114.5C 277.666,116.379 268.666,117.046 259.5,116.5C 255.544,115.539 252.877,113.205 251.5,109.5C 251.334,101.493 251.5,93.4931 252,85.5C 253.044,84.3774 253.71,83.0441 254,81.5C 254.816,80.1772 255.983,79.5106 257.5,79.5C 255.73,81.1133 254.564,83.1133 254,85.5C 247.5,111 257,120.5 282.5,114C 300.5,96.6667 318.5,79.3333 336.5,62C 343.09,60.1476 348.59,61.6476 353,66.5C 363.492,87.3025 367.159,109.303 364,132.5C 359.19,163.797 344.357,189.131 319.5,208.5C 317.568,209.52 315.568,209.687 313.5,209C 306.902,204.239 301.569,198.406 297.5,191.5C 305.739,184.093 313.572,176.093 321,167.5C 334.944,147.502 339.777,125.502 335.5,101.5C 324.347,112.152 313.347,122.986 302.5,134C 297.406,137.755 291.739,140.255 285.5,141.5 Z"/></g>
<g><path style="opacity:0.534" fill="#989898" d="M 361.5,102.5 C 362.659,113.326 362.826,124.326 362,135.5C 361.844,138.191 361.011,140.524 359.5,142.5C 361.245,129.239 361.912,115.905 361.5,102.5 Z"/></g>
<g><path style="opacity:0.217" fill="#a6a6a6" d="M 334.5,98.5 C 335.568,97.5655 336.901,97.2322 338.5,97.5C 339.636,107.324 339.636,116.991 338.5,126.5C 338.566,117.148 338.232,107.815 337.5,98.5C 336.5,98.5 335.5,98.5 334.5,98.5 Z"/></g>
<g><path style="opacity:0.294" fill="#b5b5b5" d="M 287.5,138.5 C 286.833,139.5 286.167,140.5 285.5,141.5C 285.167,141.5 284.833,141.5 284.5,141.5C 275.5,140.167 266.5,140.167 257.5,141.5C 256.833,141.5 256.167,141.5 255.5,141.5C 255.833,140.833 256.167,140.167 256.5,139.5C 266.872,139.76 277.206,139.427 287.5,138.5 Z"/></g>
<g><path style="opacity:0.01" fill="#f9f9f9" d="M 284.5,141.5 C 275.402,142.815 266.402,142.815 257.5,141.5C 266.5,140.167 275.5,140.167 284.5,141.5 Z"/></g>
<g><path style="opacity:0.018" fill="#e6e6e6" d="M 7.5,41.5 C 6.14745,44.1423 5.48078,46.9756 5.5,50C 6.70892,55.2521 8.87559,60.0854 12,64.5C 31.1043,87.8812 49.6043,111.715 67.5,136C 69.0016,136.583 70.3349,137.416 71.5,138.5C 89.1572,139.333 106.824,139.833 124.5,140C 147.75,162.915 170.583,186.082 193,209.5C 193.667,210.833 193.667,212.167 193,213.5C 181.255,238.643 184.921,261.31 204,281.5C 229.855,307.305 255.688,332.971 281.5,358.5C 281.5,359.167 281.5,359.833 281.5,360.5C 252.897,333.398 224.73,305.731 197,277.5C 184.397,261.375 180.731,243.375 186,223.5C 187.266,219.356 189.099,215.523 191.5,212C 169.061,188.56 146.228,165.393 123,142.5C 106.532,141.688 90.0317,141.188 73.5,141C 70.8232,140.751 68.4899,139.751 66.5,138C 45.9711,112.438 25.8045,86.6051 6,60.5C 4.60327,55.2919 4.10327,49.9586 4.5,44.5C 5.27187,43.3065 6.27187,42.3065 7.5,41.5 Z"/></g>
<g><path style="opacity:0.396" fill="#a1a1a1" d="M 359.5,143.5 C 359.712,147.345 358.712,150.679 356.5,153.5C 356.87,149.863 357.87,146.53 359.5,143.5 Z"/></g>
<g><path style="opacity:0.03" fill="#f0f0f0" d="M 312.5,358.5 C 326.167,343.833 339.833,329.167 353.5,314.5C 356.656,310.863 359.323,306.863 361.5,302.5C 362.661,298.205 362.828,293.871 362,289.5C 361.861,286.555 360.694,284.221 358.5,282.5C 332.419,254.917 305.752,227.751 278.5,201C 277.906,200.536 277.239,200.369 276.5,200.5C 271.607,195.806 265.94,192.306 259.5,190C 256.077,188.096 252.41,187.263 248.5,187.5C 245.644,185.994 242.477,185.328 239,185.5C 235.523,185.328 232.356,185.994 229.5,187.5C 227.473,187.338 225.473,187.505 223.5,188C 218.694,190.587 213.694,192.253 208.5,193C 186.028,169.528 163.195,146.361 140,123.5C 139.667,106.5 139.333,89.5 139,72.5C 138.333,71.1667 137.667,69.8333 137,68.5C 111.438,47.9711 85.6051,27.8045 59.5,8C 53.9489,5.26287 48.2822,4.92953 42.5,7C 30.3009,18.033 18.6342,29.533 7.5,41.5C 6.27187,42.3065 5.27187,43.3065 4.5,44.5C 4.42082,43.0695 4.75415,41.7362 5.5,40.5C 16.7219,26.777 29.3886,14.6104 43.5,4C 49.7547,2.87322 55.7547,3.53989 61.5,6C 87.2861,25.4513 112.786,45.2846 138,65.5C 139.368,68.1863 140.701,70.853 142,73.5C 142.333,89.8333 142.667,106.167 143,122.5C 165.223,145.725 187.89,168.725 211,191.5C 236.056,179.038 259.223,181.871 280.5,200C 306.333,225.833 332.167,251.667 358,277.5C 365.104,286.974 366.438,297.307 362,308.5C 345.994,325.673 329.494,342.34 312.5,358.5 Z"/></g>
<g><path style="opacity:0.986" fill="#565656" d="M 134.5,187.5 C 99.5069,221.66 65.0069,256.326 31,291.5C 26.5173,301.547 26.3507,311.547 30.5,321.5C 43.8731,341.261 60.8731,344.928 81.5,332.5C 90.7795,324.889 99.4462,316.555 107.5,307.5C 107.5,306.833 107.833,306.5 108.5,306.5C 114.833,300.833 120.833,294.833 126.5,288.5C 137.937,276.562 149.604,264.728 161.5,253C 162.793,252.51 164.127,252.343 165.5,252.5C 165.781,259.256 167.448,265.589 170.5,271.5C 170.66,273.199 170.494,274.866 170,276.5C 149.917,296.416 130.083,316.416 110.5,336.5C 105.226,340.105 100.559,344.438 96.5,349.5C 90.9602,353.101 85.2935,356.435 79.5,359.5C 69.2476,361.179 58.9143,361.846 48.5,361.5C 24.9231,355.422 10.7564,340.422 6,316.5C 5.50051,310.509 5.33385,304.509 5.5,298.5C 7.15569,289.359 10.6557,281.026 16,273.5C 31.0348,258.298 46.2015,243.298 61.5,228.5C 70.412,221.093 78.912,213.093 87,204.5C 87.4643,203.906 87.631,203.239 87.5,202.5C 94.11,197.559 100.11,191.892 105.5,185.5C 109.556,179.11 114.889,174.11 121.5,170.5C 126.753,174.247 131.586,178.58 136,183.5C 136.773,185.352 136.273,186.686 134.5,187.5 Z M 65.5,290.5 C 77.1613,291.488 80.9946,297.488 77,308.5C 67.2771,316.153 59.7771,314.319 54.5,303C 55.7887,300.672 56.9553,297.838 58,294.5C 60.4172,292.872 62.9172,291.539 65.5,290.5 Z"/></g>
<g><path style="opacity:0.041" fill="#f2f2f2" d="M 130.5,194.5 C 131.833,192.167 133.167,189.833 134.5,187.5C 136.273,186.686 136.773,185.352 136,183.5C 131.586,178.58 126.753,174.247 121.5,170.5C 114.889,174.11 109.556,179.11 105.5,185.5C 98.89,190.441 92.89,196.108 87.5,202.5C 78.5,210.833 69.8333,219.5 61.5,228.5C 46.2015,243.298 31.0348,258.298 16,273.5C 10.6557,281.026 7.15569,289.359 5.5,298.5C 5.16667,298.5 4.83333,298.5 4.5,298.5C 4.99184,288.858 8.1585,280.191 14,272.5C 48.8063,237.694 83.6396,202.86 118.5,168C 120.971,167.294 123.305,167.627 125.5,169C 130,173.5 134.5,178 139,182.5C 139.667,183.833 139.667,185.167 139,186.5C 136.297,189.371 133.464,192.038 130.5,194.5 Z"/></g>
<g><path style="opacity:0.772" fill="#848484" d="M 248.5,187.5 C 242.167,187.5 235.833,187.5 229.5,187.5C 232.356,185.994 235.523,185.328 239,185.5C 242.477,185.328 245.644,185.994 248.5,187.5 Z"/></g>
<g><path style="opacity:0.678" fill="#848484" d="M 105.5,185.5 C 100.11,191.892 94.11,197.559 87.5,202.5C 92.89,196.108 98.89,190.441 105.5,185.5 Z"/></g>
<g><path style="opacity:0.012" fill="#f8f8f8" d="M 130.5,194.5 C 128.167,197.5 125.5,200.167 122.5,202.5C 124.167,198.833 126.833,196.167 130.5,194.5 Z"/></g>
<g><path style="opacity:0.247" fill="#a9a9a9" d="M 276.5,200.5 C 277.239,200.369 277.906,200.536 278.5,201C 305.752,227.751 332.419,254.917 358.5,282.5C 330.833,255.5 303.5,228.167 276.5,200.5 Z"/></g>
<g><path style="opacity:0.255" fill="#a3a3a3" d="M 249.5,210.5 C 245.847,210.112 242.18,209.779 238.5,209.5C 233.687,209.912 229.021,210.912 224.5,212.5C 226.493,210.837 228.826,209.67 231.5,209C 236.5,208.333 241.5,208.333 246.5,209C 247.737,209.232 248.737,209.732 249.5,210.5 Z"/></g>
<g><path style="opacity:0.011" fill="#e5e5e5" d="M 249.5,210.5 C 253.292,211.302 256.625,212.969 259.5,215.5C 285.575,242.074 311.741,268.407 338,294.5C 338.765,296.066 338.598,297.399 337.5,298.5C 337.737,297.209 337.404,296.209 336.5,295.5C 310.368,269.868 284.368,244.035 258.5,218C 256.5,216.667 254.5,215.333 252.5,214C 223.749,207.585 210.082,219.085 211.5,248.5C 211.178,249.858 211.178,251.525 211.5,253.5C 209.133,249.599 208.133,245.266 208.5,240.5C 207.717,227.467 213.051,218.134 224.5,212.5C 229.021,210.912 233.687,209.912 238.5,209.5C 242.18,209.779 245.847,210.112 249.5,210.5 Z"/></g>
<g><path style="opacity:0.69" fill="#818181" d="M 87.5,202.5 C 87.631,203.239 87.4643,203.906 87,204.5C 78.912,213.093 70.412,221.093 61.5,228.5C 69.8333,219.5 78.5,210.833 87.5,202.5 Z"/></g>
<g><path style="opacity:0.021" fill="#dedede" d="M 134.5,187.5 C 133.167,189.833 131.833,192.167 130.5,194.5C 126.833,196.167 124.167,198.833 122.5,202.5C 93.8682,231.632 65.0349,260.632 36,289.5C 31.1771,297.156 29.3438,305.489 30.5,314.5C 30.5,316.833 30.5,319.167 30.5,321.5C 26.3507,311.547 26.5173,301.547 31,291.5C 65.0069,256.326 99.5069,221.66 134.5,187.5 Z"/></g>
<g><path style="opacity:0.018" fill="#fefefe" d="M 63.5,288.5 C 77.5357,288.364 82.7023,295.03 79,308.5C 73.5597,315.808 66.7264,317.308 58.5,313C 52.3175,306.205 51.9842,299.205 57.5,292C 59.4319,290.541 61.4319,289.375 63.5,288.5 Z M 65.5,290.5 C 62.9172,291.539 60.4172,292.872 58,294.5C 56.9553,297.838 55.7887,300.672 54.5,303C 59.7771,314.319 67.2771,316.153 77,308.5C 80.9946,297.488 77.1613,291.488 65.5,290.5 Z"/></g>
<g><path style="opacity:0.034" fill="#f2f2f2" d="M 211.5,248.5 C 213.712,252.571 216.212,256.571 219,260.5C 244.428,286.095 269.928,311.429 295.5,336.5C 309.569,323.098 323.236,309.431 336.5,295.5C 337.404,296.209 337.737,297.209 337.5,298.5C 337.5,298.833 337.5,299.167 337.5,299.5C 323.218,312.114 309.552,325.447 296.5,339.5C 295.325,339.719 294.325,339.386 293.5,338.5C 270.54,314.706 247.04,291.373 223,268.5C 218.537,263.884 214.703,258.884 211.5,253.5C 211.178,251.525 211.178,249.858 211.5,248.5 Z"/></g>
<g><path style="opacity:0.047" fill="#f3f3f3" d="M 141.5,308.5 C 150.743,297.754 160.576,287.42 171,277.5C 171.789,275.288 171.622,273.288 170.5,271.5C 167.448,265.589 165.781,259.256 165.5,252.5C 164.127,252.343 162.793,252.51 161.5,253C 149.604,264.728 137.937,276.562 126.5,288.5C 119.5,293.5 113.5,299.5 108.5,306.5C 107.833,306.5 107.5,306.833 107.5,307.5C 98.2205,315.111 89.5538,323.445 81.5,332.5C 60.8731,344.928 43.8731,341.261 30.5,321.5C 30.5,319.167 30.5,316.833 30.5,314.5C 37.9289,333.548 51.5955,340.381 71.5,335C 74.6612,333.587 77.6612,331.92 80.5,330C 107.544,302.284 135.044,275.451 163,249.5C 165.034,249.432 166.534,250.266 167.5,252C 168.664,259.157 170.831,265.99 174,272.5C 174.667,273.833 174.667,275.167 174,276.5C 163.937,287.948 153.103,298.615 141.5,308.5 Z"/></g>
<g><path style="opacity:0.635" fill="#929292" d="M 126.5,288.5 C 120.833,294.833 114.833,300.833 108.5,306.5C 113.5,299.5 119.5,293.5 126.5,288.5 Z"/></g>
<g><path style="opacity:0.655" fill="#848484" d="M 337.5,299.5 C 324.448,313.553 310.782,326.886 296.5,339.5C 309.552,325.447 323.218,312.114 337.5,299.5 Z"/></g>
<g><path style="opacity:0.01" fill="#dedede" d="M 170.5,271.5 C 171.622,273.288 171.789,275.288 171,277.5C 160.576,287.42 150.743,297.754 141.5,308.5C 126.395,323.104 111.395,337.938 96.5,353C 90.1584,357.67 83.1584,361.004 75.5,363C 41.3998,369.041 17.8998,356.208 5,324.5C 4.50025,315.84 4.33358,307.173 4.5,298.5C 4.83333,298.5 5.16667,298.5 5.5,298.5C 5.33385,304.509 5.50051,310.509 6,316.5C 10.7564,340.422 24.9231,355.422 48.5,361.5C 56.3225,362.656 64.3225,362.823 72.5,362C 75.1042,361.61 77.4375,360.776 79.5,359.5C 85.2935,356.435 90.9602,353.101 96.5,349.5C 101.774,345.895 106.441,341.562 110.5,336.5C 130.083,316.416 149.917,296.416 170,276.5C 170.494,274.866 170.66,273.199 170.5,271.5 Z"/></g>
<g><path style="opacity:0.204" fill="#b1b1b1" d="M 110.5,336.5 C 106.441,341.562 101.774,345.895 96.5,349.5C 100.559,344.438 105.226,340.105 110.5,336.5 Z"/></g>
<g><path style="opacity:0.706" fill="#888888" d="M 107.5,307.5 C 99.4462,316.555 90.7795,324.889 81.5,332.5C 89.5538,323.445 98.2205,315.111 107.5,307.5 Z"/></g>
<g><path style="opacity:0.024" fill="#d2d2d2" d="M 353.5,314.5 C 339.833,329.167 326.167,343.833 312.5,358.5C 310.572,360.474 308.239,361.974 305.5,363C 298.833,363.667 292.167,363.667 285.5,363C 283.934,362.392 282.6,361.558 281.5,360.5C 281.5,359.833 281.5,359.167 281.5,358.5C 291.497,364.188 301.163,363.688 310.5,357C 324.701,342.631 339.035,328.465 353.5,314.5 Z"/></g>
<g><path style="opacity:0.282" fill="#8e8e8e" d="M 79.5,359.5 C 77.4375,360.776 75.1042,361.61 72.5,362C 64.3225,362.823 56.3225,362.656 48.5,361.5C 58.9143,361.846 69.2476,361.179 79.5,359.5 Z"/></g>
</svg>
